<svg display="block" fill="none" height="26" preserveAspectRatio="none" viewBox="0 0 26 26" width="26" xmlns="http://www.w3.org/2000/svg"><path d="m13 0c7.1797 0 13 5.8203 13 13s-5.8203 13-13 13-13-5.8203-13-13 5.8203-13 13-13z" fill="#388055"/><g fill="#fff"><path d="m13.9082 10.7432c.2498-.2497.6546-.2497.9043 0 .2496.2497.2497.6546 0 .9043l-1.1308 1.1299 1.1308 1.1308c.2497.2498.2497.6546 0 .9043s-.6546.2497-.9043 0l-1.1308-1.1308-1.1299 1.1308c-.2497.2497-.6546.2496-.9043 0-.2497-.2497-.2497-.6545 0-.9043l1.1299-1.1308-1.1299-1.1299c-.2497-.2497-.2497-.6546 0-.9043s.6546-.2497.9043 0l1.1299 1.1299z"/><path d="m12.134 7.5c.3849-.66667 1.3471-.66667 1.732 0l5.1962 9c.3849.6667-.0962 1.5-.866 1.5h-10.39235c-.7698 0-1.25093-.8333-.86603-1.5z"/></g></svg>